<?xml version="1.0" encoding="UTF-8"?>
<svg width="600" height="400" viewBox="0 0 600 400" xmlns="http://www.w3.org/2000/svg">
    <!-- Background Circle -->
    <circle cx="300" cy="200" r="180" fill="#6c5ce7" opacity="0.1"/>
    
    <!-- Brain Icon -->
    <g transform="translate(200, 100)">
        <path d="M100,100 C100,60 140,40 180,40 C220,40 260,60 260,100 C260,140 220,160 180,160 C140,160 100,140 100,100 Z" fill="#6c5ce7"/>
        <path d="M120,80 C120,60 140,50 160,50 C180,50 200,60 200,80 C200,100 180,110 160,110 C140,110 120,100 120,80 Z" fill="#a29bfe"/>
        <path d="M140,60 C140,50 150,45 160,45 C170,45 180,50 180,60 C180,70 170,75 160,75 C150,75 140,70 140,60 Z" fill="#ffffff"/>
    </g>
    
    <!-- Decorative Elements -->
    <circle cx="100" cy="100" r="20" fill="#a29bfe" opacity="0.5"/>
    <circle cx="500" cy="300" r="30" fill="#6c5ce7" opacity="0.3"/>
    <circle cx="400" cy="150" r="15" fill="#a29bfe" opacity="0.4"/>
    
    <!-- Connection Lines -->
    <path d="M100,100 L300,200" stroke="#6c5ce7" stroke-width="2" opacity="0.3"/>
    <path d="M500,300 L300,200" stroke="#a29bfe" stroke-width="2" opacity="0.3"/>
    <path d="M400,150 L300,200" stroke="#6c5ce7" stroke-width="2" opacity="0.3"/>
</svg> 